<svg version="1.1"
     baseProfile="full"
     xmlns="http://www.w3.org/2000/svg"
>
        <symbol viewBox="0 0 13 13" id="header-search">
                <path d="M12.6 12.5999L9.40003 9.3999M6.20002 10.9999C3.54906 10.9999 1.40002 8.85087 1.40002 6.1999C1.40002 3.54894 3.54906 1.3999 6.20002 1.3999C8.85099 1.3999 11 3.54894 11 6.1999C11 8.85087 8.85099 10.9999 6.20002 10.9999Z" stroke="#2E2E2E"/>
        </symbol>
        <symbol viewBox="0 0 12 12" id="header-phone">
                <path d="M10.3275 7.4274C10.0388 7.15272 9.6554 6.99977 9.2569 7.00033C8.85841 7.00089 8.47543 7.15491 8.1875 7.4304L7.2345 8.2334C6.45664 7.91151 5.75002 7.43913 5.15522 6.84339C4.56043 6.24764 4.08917 5.54028 3.7685 4.7619L4.5685 3.8119C4.84327 3.5234 4.99678 3.14041 4.99734 2.742C4.9979 2.34359 4.84546 1.96017 4.5715 1.6709C4.5715 1.6709 3.6455 0.469403 3.63 0.453903C3.34473 0.166777 2.95794 0.00341428 2.55322 -0.000889338C2.14849 -0.00519295 1.75832 0.149908 1.467 0.430903L0.892004 0.930903C-2.9675 5.0359 6.992 14.9999 11.092 11.0809L11.548 10.5559C11.8376 10.2654 12.0002 9.87188 12.0002 9.46165C12.0002 9.05143 11.8376 8.65794 11.548 8.3674C11.5315 8.3539 10.3275 7.4274 10.3275 7.4274Z" fill="#2E2E2E"/>
        </symbol>
        <symbol viewBox="0 0 16 16" id="footer-phone">
                <path d="M13.77 9.90341C13.385 9.53716 12.8738 9.33323 12.3425 9.33398C11.8112 9.33472 11.3005 9.54008 10.9166 9.90741L9.64596 10.9781C8.60881 10.5489 7.66665 9.91904 6.87359 9.12472C6.08053 8.3304 5.45218 7.38724 5.02463 6.34941L6.0913 5.08274C6.45766 4.69807 6.66233 4.18742 6.66308 3.65621C6.66382 3.12499 6.46058 2.61377 6.0953 2.22807C6.0953 2.22807 4.86063 0.626074 4.83996 0.605408C4.4596 0.222573 3.94389 0.00475582 3.40425 -0.000982334C2.86461 -0.00672049 2.34438 0.200081 1.95596 0.574741L1.1893 1.24141C-3.9567 6.71474 9.32263 20.0001 14.7893 14.7747L15.3973 14.0747C15.7834 13.6874 16.0003 13.1627 16.0003 12.6157C16.0003 12.0688 15.7834 11.5441 15.3973 11.1567C15.3753 11.1387 13.77 9.90341 13.77 9.90341Z" fill="white"/>
        </symbol>
        <symbol viewBox="0 0 20 20" id="footer-mail">
                <path d="M2.00333 5.88355L9.99995 9.88186L17.9967 5.8835C17.9363 4.83315 17.0655 4 16 4H4C2.93452 4 2.06363 4.83318 2.00333 5.88355Z" fill="white"/>
                <path d="M18 8.1179L9.99995 12.1179L2 8.11796V14C2 15.1046 2.89543 16 4 16H16C17.1046 16 18 15.1046 18 14V8.1179Z" fill="white"/>
        </symbol>
        <symbol viewBox="0 0 20 20" id="footer-location">
                <path fill-rule="evenodd" clip-rule="evenodd" d="M5.05025 4.05025C7.78392 1.31658 12.2161 1.31658 14.9497 4.05025C17.6834 6.78392 17.6834 11.2161 14.9497 13.9497L10 18.8995L5.05025 13.9497C2.31658 11.2161 2.31658 6.78392 5.05025 4.05025ZM10 11C11.1046 11 12 10.1046 12 9C12 7.89543 11.1046 7 10 7C8.89543 7 8 7.89543 8 9C8 10.1046 8.89543 11 10 11Z" fill="white"/>
        </symbol>
        <symbol viewBox="0 0 14 14" id="news-created-at">
                <path fill-rule="evenodd" clip-rule="evenodd" d="M3.79998 0.599976C3.35815 0.599976 2.99998 0.958148 2.99998 1.39998V2.19998H2.19998C1.31632 2.19998 0.599976 2.91632 0.599976 3.79998V11.8C0.599976 12.6836 1.31632 13.4 2.19998 13.4H11.8C12.6836 13.4 13.4 12.6836 13.4 11.8V3.79998C13.4 2.91632 12.6836 2.19998 11.8 2.19998H11V1.39998C11 0.958148 10.6418 0.599976 10.2 0.599976C9.75815 0.599976 9.39997 0.958148 9.39997 1.39998V2.19998H4.59998V1.39998C4.59998 0.958148 4.2418 0.599976 3.79998 0.599976ZM3.79998 4.59998C3.35815 4.59998 2.99998 4.95815 2.99998 5.39998C2.99998 5.8418 3.35815 6.19998 3.79998 6.19998H10.2C10.6418 6.19998 11 5.8418 11 5.39998C11 4.95815 10.6418 4.59998 10.2 4.59998H3.79998Z" fill="#828282"/>
        </symbol>
        <symbol viewBox="0 0 16 12" id="news-views">
                <path d="M8.00001 7.60003C8.88366 7.60003 9.60001 6.88368 9.60001 6.00002C9.60001 5.11637 8.88366 4.40002 8.00001 4.40002C7.11635 4.40002 6.40001 5.11637 6.40001 6.00002C6.40001 6.88368 7.11635 7.60003 8.00001 7.60003Z" fill="#828282"/>
                <path fill-rule="evenodd" clip-rule="evenodd" d="M0.366211 6.00006C1.38561 2.75435 4.41785 0.400024 7.99998 0.400024C11.5821 0.400024 14.6143 2.75433 15.6337 6C14.6143 9.2457 11.5821 11.6 7.99996 11.6C4.41786 11.6 1.38563 9.24573 0.366211 6.00006ZM11.2 6.00002C11.2 7.76734 9.76732 9.20003 8.00001 9.20003C6.2327 9.20003 4.80001 7.76734 4.80001 6.00002C4.80001 4.23271 6.2327 2.80002 8.00001 2.80002C9.76732 2.80002 11.2 4.23271 11.2 6.00002Z" fill="#828282"/>
        </symbol>
</svg>